<mxfile host="app.diagrams.net" agent="Mozilla/5.0 (Windows NT 10.0; Win64; x64) AppleWebKit/537.36 (KHTML, like Gecko) Chrome/130.0.0.0 Safari/537.36" version="24.8.3">
  <diagram name="Page-1" id="J9EbRr-yb650UtJSDpAs">
    <mxGraphModel dx="1221" dy="660" grid="1" gridSize="10" guides="1" tooltips="1" connect="1" arrows="1" fold="1" page="1" pageScale="1" pageWidth="850" pageHeight="1100" math="0" shadow="0">
      <root>
        <mxCell id="0" />
        <mxCell id="1" parent="0" />
        <mxCell id="DsEHmDbhGYJ5T8UwfVXn-1" value="" style="swimlane;startSize=0;" vertex="1" parent="1">
          <mxGeometry x="120" y="120" width="200" height="200" as="geometry" />
        </mxCell>
        <mxCell id="DsEHmDbhGYJ5T8UwfVXn-2" value="ShoppingCart" style="rounded=0;whiteSpace=wrap;html=1;" vertex="1" parent="DsEHmDbhGYJ5T8UwfVXn-1">
          <mxGeometry width="200" height="30" as="geometry" />
        </mxCell>
        <mxCell id="DsEHmDbhGYJ5T8UwfVXn-3" value="# items: List &amp;lt;Ebook&amp;gt;&lt;div&gt;# cart_total: Float&lt;/div&gt;" style="rounded=0;whiteSpace=wrap;html=1;align=left;" vertex="1" parent="DsEHmDbhGYJ5T8UwfVXn-1">
          <mxGeometry y="30" width="200" height="50" as="geometry" />
        </mxCell>
        <mxCell id="DsEHmDbhGYJ5T8UwfVXn-4" value="&lt;font face=&quot;Helvetica&quot; style=&quot;font-size: 12px;&quot;&gt;+&amp;nbsp;&lt;span style=&quot;&quot; id=&quot;docs-internal-guid-eace1969-7fff-ef68-6cc1-129dc1e255ab&quot;&gt;&lt;span style=&quot;background-color: transparent; font-variant-numeric: normal; font-variant-east-asian: normal; font-variant-alternates: normal; font-variant-position: normal; vertical-align: baseline; white-space-collapse: preserve;&quot;&gt;add_item(ebook)&lt;/span&gt;&lt;/span&gt;&lt;/font&gt;&lt;div style=&quot;&quot;&gt;&lt;font face=&quot;Helvetica&quot; style=&quot;font-size: 12px;&quot;&gt;&lt;span style=&quot;background-color: transparent; font-variant-numeric: normal; font-variant-east-asian: normal; font-variant-alternates: normal; font-variant-position: normal; vertical-align: baseline; white-space-collapse: preserve;&quot;&gt;+ &lt;/span&gt;&lt;span style=&quot;background-color: transparent; white-space-collapse: preserve;&quot;&gt;remove_item(ebook)&lt;/span&gt;&lt;/font&gt;&lt;/div&gt;&lt;div style=&quot;&quot;&gt;&lt;font face=&quot;Helvetica&quot; style=&quot;font-size: 12px;&quot;&gt;&lt;span style=&quot;background-color: transparent; white-space-collapse: preserve;&quot;&gt;+ &lt;/span&gt;&lt;span style=&quot;background-color: transparent; white-space-collapse: preserve;&quot;&gt;view_cart()&lt;/span&gt;&lt;/font&gt;&lt;/div&gt;&lt;div style=&quot;&quot;&gt;&lt;font face=&quot;Helvetica&quot; style=&quot;font-size: 12px;&quot;&gt;&lt;span style=&quot;background-color: transparent; white-space-collapse: preserve;&quot;&gt;+ &lt;/span&gt;&lt;span style=&quot;background-color: transparent; white-space-collapse: preserve;&quot;&gt;get_items()&lt;/span&gt;&lt;/font&gt;&lt;/div&gt;&lt;div style=&quot;&quot;&gt;&lt;font face=&quot;Helvetica&quot; style=&quot;font-size: 12px;&quot;&gt;&lt;span style=&quot;background-color: transparent; white-space-collapse: preserve;&quot;&gt;+ &lt;/span&gt;&lt;span style=&quot;background-color: transparent; white-space-collapse: preserve;&quot;&gt;set_items(new_items)&lt;/span&gt;&lt;/font&gt;&lt;/div&gt;&lt;div style=&quot;&quot;&gt;&lt;font face=&quot;Helvetica&quot; style=&quot;font-size: 12px;&quot;&gt;&lt;span style=&quot;background-color: transparent; white-space-collapse: preserve;&quot;&gt;+ &lt;/span&gt;&lt;span style=&quot;background-color: transparent; white-space-collapse: preserve;&quot;&gt;get_cart_total()&lt;/span&gt;&lt;/font&gt;&lt;/div&gt;&lt;div style=&quot;&quot;&gt;&lt;font face=&quot;Helvetica&quot; style=&quot;font-size: 12px;&quot;&gt;&lt;span style=&quot;background-color: transparent; white-space-collapse: preserve;&quot;&gt;+ &lt;/span&gt;&lt;span style=&quot;background-color: transparent; white-space-collapse: preserve;&quot;&gt;set_cart_total(new_total)&lt;/span&gt;&lt;/font&gt;&lt;/div&gt;" style="rounded=0;whiteSpace=wrap;html=1;align=left;" vertex="1" parent="DsEHmDbhGYJ5T8UwfVXn-1">
          <mxGeometry y="80" width="200" height="120" as="geometry" />
        </mxCell>
        <mxCell id="DsEHmDbhGYJ5T8UwfVXn-5" value="" style="swimlane;startSize=0;" vertex="1" parent="1">
          <mxGeometry x="370" y="120" width="200" height="240" as="geometry" />
        </mxCell>
        <mxCell id="DsEHmDbhGYJ5T8UwfVXn-6" value="Order" style="rounded=0;whiteSpace=wrap;html=1;" vertex="1" parent="DsEHmDbhGYJ5T8UwfVXn-5">
          <mxGeometry width="200" height="30" as="geometry" />
        </mxCell>
        <mxCell id="DsEHmDbhGYJ5T8UwfVXn-7" value="# order_date: Date&lt;div&gt;# order_items: Lisrt &amp;lt;Ebook&amp;gt;&lt;/div&gt;&lt;div&gt;# total_price: Float&lt;/div&gt;" style="rounded=0;whiteSpace=wrap;html=1;align=left;" vertex="1" parent="DsEHmDbhGYJ5T8UwfVXn-5">
          <mxGeometry y="30" width="200" height="60" as="geometry" />
        </mxCell>
        <mxCell id="DsEHmDbhGYJ5T8UwfVXn-8" value="&lt;font face=&quot;Helvetica&quot; style=&quot;font-size: 12px;&quot;&gt;+&amp;nbsp;&lt;span style=&quot;&quot; id=&quot;docs-internal-guid-a9d65376-7fff-370a-b3a0-03f3b8193975&quot;&gt;&lt;span style=&quot;background-color: transparent; font-variant-numeric: normal; font-variant-east-asian: normal; font-variant-alternates: normal; font-variant-position: normal; vertical-align: baseline; white-space-collapse: preserve;&quot;&gt;add_ebook(ebook)&lt;/span&gt;&lt;/span&gt;&lt;/font&gt;&lt;div style=&quot;&quot;&gt;&lt;font face=&quot;Helvetica&quot; style=&quot;font-size: 12px;&quot;&gt;&lt;span style=&quot;background-color: transparent; font-variant-numeric: normal; font-variant-east-asian: normal; font-variant-alternates: normal; font-variant-position: normal; vertical-align: baseline; white-space-collapse: preserve;&quot;&gt;+ &lt;/span&gt;&lt;span style=&quot;background-color: transparent; white-space-collapse: preserve;&quot;&gt;remove_ebook(ebook)&lt;/span&gt;&lt;/font&gt;&lt;/div&gt;&lt;div style=&quot;&quot;&gt;&lt;font face=&quot;Helvetica&quot; style=&quot;font-size: 12px;&quot;&gt;&lt;span style=&quot;background-color: transparent; white-space-collapse: preserve;&quot;&gt;+ &lt;/span&gt;&lt;span style=&quot;background-color: transparent; white-space-collapse: preserve;&quot;&gt;finalize_order()&lt;/span&gt;&lt;/font&gt;&lt;/div&gt;&lt;div style=&quot;&quot;&gt;&lt;font face=&quot;Helvetica&quot; style=&quot;font-size: 12px;&quot;&gt;&lt;span style=&quot;background-color: transparent; white-space-collapse: preserve;&quot;&gt;+ &lt;/span&gt;&lt;span style=&quot;background-color: transparent; white-space-collapse: preserve;&quot;&gt;set_order_date(new_date)&lt;/span&gt;&lt;/font&gt;&lt;/div&gt;&lt;div style=&quot;&quot;&gt;&lt;font face=&quot;Helvetica&quot; style=&quot;font-size: 12px;&quot;&gt;&lt;span style=&quot;background-color: transparent; white-space-collapse: preserve;&quot;&gt;+ &lt;/span&gt;&lt;span style=&quot;background-color: transparent; white-space-collapse: preserve;&quot;&gt;get_order_date()&lt;/span&gt;&lt;/font&gt;&lt;/div&gt;&lt;div style=&quot;&quot;&gt;&lt;font face=&quot;Helvetica&quot; style=&quot;font-size: 12px;&quot;&gt;&lt;span style=&quot;background-color: transparent; white-space-collapse: preserve;&quot;&gt;+ &lt;/span&gt;&lt;span style=&quot;background-color: transparent; white-space-collapse: preserve;&quot;&gt;set_order_items(new_items)&lt;/span&gt;&lt;/font&gt;&lt;/div&gt;&lt;div style=&quot;&quot;&gt;&lt;font face=&quot;Helvetica&quot; style=&quot;font-size: 12px;&quot;&gt;&lt;span style=&quot;background-color: transparent; white-space-collapse: preserve;&quot;&gt;+ &lt;/span&gt;&lt;span style=&quot;background-color: transparent; white-space-collapse: preserve;&quot;&gt;get_order_items()&lt;/span&gt;&lt;/font&gt;&lt;/div&gt;&lt;div style=&quot;&quot;&gt;&lt;font face=&quot;Helvetica&quot; style=&quot;font-size: 12px;&quot;&gt;&lt;span style=&quot;background-color: transparent; white-space-collapse: preserve;&quot;&gt;+ &lt;/span&gt;&lt;span style=&quot;background-color: transparent; white-space-collapse: preserve;&quot;&gt;set_total_price(new_price)&lt;/span&gt;&lt;/font&gt;&lt;/div&gt;&lt;div style=&quot;&quot;&gt;&lt;font face=&quot;Helvetica&quot; style=&quot;font-size: 12px;&quot;&gt;&lt;span style=&quot;background-color: transparent; white-space-collapse: preserve;&quot;&gt;+ &lt;/span&gt;&lt;span style=&quot;background-color: transparent; white-space-collapse: preserve;&quot;&gt;get_total_price()&lt;/span&gt;&lt;/font&gt;&lt;/div&gt;" style="rounded=0;whiteSpace=wrap;html=1;align=left;" vertex="1" parent="DsEHmDbhGYJ5T8UwfVXn-5">
          <mxGeometry y="90" width="200" height="150" as="geometry" />
        </mxCell>
      </root>
    </mxGraphModel>
  </diagram>
</mxfile>
